# xmcd
#
# Track frame offsets:
# 182
# 14182
# 25882
# 38820
# 53645
# 67220
# 79657
# 97120
# 111907
# 130632
# 142345
# 160232
# 169845
# 188095
# 200807
# 210820
# 218770
# 230670
#
# Disc length: 3262 seconds
#
#
# Revision: 2
# Processed by: cddbd v1.5.1PL2 Copyright (c) Steve Scherf et al.
# Submitted via: FreeRIP 2.70 
#
DISCID=0b0cbc12
DTITLE=Various Artist - Festival Di Sanremo Gli Anni D'oro-2
DYEAR=1900
DGENRE=Chanson
TTITLE0=Little Tony - Guore Mato
TTITLE1=Iva Zanicchi - Zingara
TTITLE2=Dino - Gli occhi miei
TTITLE3=Fausto Leali - Deboran
TTITLE4=Loretta Bertini - Io,Tu e le Rose
TTITLE5=Gianni Bennati - La tramontata
TTITLE6=Mario Germani - Il Ragozzo della via gluck
TTITLE7=Wilma Goich - In un fiore
TTITLE8=Giorgio Gaber - E allora dai
TTITLE9=Fausto Leali - Un'ora fa
TTITLE10=Iva Zanicchi - La notte dell'addio
TTITLE11=Lucio Bertani - Bisogna saperperdere
TTITLE12=I Giganti - Proposta
TTITLE13=Anna Identici - Una rosa da vienna
TTITLE14=Giorgio Gaber - Mai mai valentina
TTITLE15=Giampiero Losa - Pietre
TTITLE16=Lola Giglio - La pioggia
TTITLE17=Louis Armstrong - Mi va di cantare
EXTD=
EXTT0=
EXTT1=
EXTT2=
EXTT3=
EXTT4=
EXTT5=
EXTT6=
EXTT7=
EXTT8=
EXTT9=
EXTT10=
EXTT11=
EXTT12=
EXTT13=
EXTT14=
EXTT15=
EXTT16=
EXTT17=
PLAYORDER=
